<svg width="53" height="53" viewBox="0 0 53 53" fill="none" xmlns="http://www.w3.org/2000/svg">
  <path fill-rule="evenodd" clip-rule="evenodd" d="M7.45312 0H45.5469C49.6631 0 53 3.33688 53 7.45312V45.5469C53 49.6631 49.6631 53 45.5469 53H7.45312C3.33688 53 0 49.6631 0 45.5469V7.45312C0 3.33688 3.33688 0 7.45312 0Z" fill="#241957"/>
  <mask id="mask0" mask-type="alpha" maskUnits="userSpaceOnUse" x="0" y="0" width="53" height="53">
    <path fill-rule="evenodd" clip-rule="evenodd" d="M7.45312 0H45.5469C49.6631 0 53 3.33688 53 7.45312V45.5469C53 49.6631 49.6631 53 45.5469 53H7.45312C3.33688 53 0 49.6631 0 45.5469V7.45312C0 3.33688 3.33688 0 7.45312 0Z" fill="white"/>
  </mask>
  <g mask="url(#mask0)">
    <path fill-rule="evenodd" clip-rule="evenodd" d="M39.75 0V26.5003L26.5046 26.5L26.5046 39.75H0L0 13.25H13.2488L13.25 0H39.75Z" fill="#7868F6"/>
    <path fill-rule="evenodd" clip-rule="evenodd" d="M26.5 39.75C33.8178 39.75 39.75 33.8178 39.75 26.5C39.75 19.1822 33.8178 13.25 26.5 13.25C22.8411 13.25 13.25 13.25 13.25 13.25C13.25 13.25 13.25 22.8411 13.25 26.5C13.25 33.8178 19.1822 39.75 26.5 39.75Z" fill="#F8D748"/>
    <path fill-rule="evenodd" clip-rule="evenodd" d="M26.5 34.7812C31.0736 34.7812 34.7812 31.0736 34.7812 26.5C34.7812 21.9264 31.0736 18.2188 26.5 18.2188C21.9264 18.2188 18.2188 21.9264 18.2188 26.5C18.2188 31.0736 21.9264 34.7812 26.5 34.7812Z" fill="#EF8B32"/>
    <path fill-rule="evenodd" clip-rule="evenodd" d="M26.5 30.6406C28.7868 30.6406 30.6406 28.7868 30.6406 26.5C30.6406 24.2132 28.7868 22.3594 26.5 22.3594C24.2132 22.3594 22.3594 24.2132 22.3594 26.5C22.3594 28.7868 24.2132 30.6406 26.5 30.6406Z" fill="white"/>
  </g>
</svg>
