<svg width="660" height="660" viewBox="0 0 660 660" fill="none" xmlns="http://www.w3.org/2000/svg">
<g clip-path="url(#clip0_3044_4075)">
<path d="M330.178 626.356C493.576 626.356 626.035 493.673 626.035 330C626.035 166.327 493.576 33.644 330.178 33.644C166.781 33.644 34.3208 166.327 34.3208 330C34.3208 493.673 166.781 626.356 330.178 626.356Z" fill="#40A459"/>
<path d="M330.178 33.644C327.927 33.644 325.687 33.6788 323.447 33.7287C322.877 33.7415 322.308 33.7543 321.74 33.7717C319.605 33.8308 317.475 33.9097 315.353 34.0141C314.804 34.0408 314.259 34.0791 313.711 34.1081C312.096 34.1974 310.485 34.2995 308.877 34.4144C308.067 34.4724 307.259 34.5281 306.451 34.5919C304.587 34.7404 302.725 34.9051 300.869 35.0884C299.909 35.1836 298.953 35.2891 297.998 35.3924C296.85 35.5177 295.704 35.6488 294.56 35.7869C293.569 35.9063 292.575 36.0212 291.587 36.15C436.749 55.0919 548.854 179.427 548.854 329.997C548.854 480.566 436.75 604.903 291.588 623.845C292.577 623.973 293.569 624.089 294.561 624.208C295.704 624.346 296.851 624.477 297.999 624.602C298.955 624.707 299.912 624.812 300.87 624.906C302.727 625.089 304.587 625.254 306.452 625.403C307.259 625.468 308.068 625.523 308.878 625.58C310.485 625.695 312.096 625.798 313.712 625.886C314.26 625.918 314.807 625.954 315.354 625.98C317.477 626.085 319.607 626.164 321.741 626.223C322.309 626.239 322.878 626.253 323.448 626.266C325.686 626.316 327.928 626.35 330.179 626.35C493.578 626.35 626.037 493.667 626.037 329.994C626.037 166.322 493.576 33.644 330.178 33.644Z" fill="#378B4E"/>
<path d="M291.588 304.229L415.01 233.283C415.01 233.283 550.02 262.089 581.18 205.135L591.008 187.172L599.554 205.781C617.299 244.419 626.679 287.373 626.679 330C626.679 428.255 578.093 520.072 496.709 575.608L488.312 581.34L291.588 304.229Z" fill="#898790"/>
<path d="M626.034 330C626.034 278.787 613.065 230.608 590.237 188.579L581.179 205.133C570.234 225.14 555.829 245.597 541.472 264.001C546.292 285.226 548.854 307.313 548.854 330C548.854 412.762 514.979 487.588 460.367 541.352L487.993 581.57C570.988 529.08 626.034 435.588 626.034 330Z" fill="#7A797F"/>
<path d="M330.178 627C228.887 627 135.588 575.859 80.6035 490.198L75.3604 482.03L240.134 342.885L429.779 609.862L417.694 613.789C389.422 622.556 359.978 627 330.178 627Z" fill="#3D9AE3"/>
<path d="M430.977 609.397L410.92 580.631C375.515 603.06 334.913 618.817 291.466 624.486C304.098 626.133 317.097 626.356 330.178 626.356C365.443 626.356 399.615 620.735 430.977 609.397Z" fill="#1D81CE"/>
<path d="M240.135 342.885L291.588 304.229L489.415 580.669L479.799 586.321C466.215 594.308 451.918 601.242 437.305 606.933L429.778 609.864L240.135 342.885Z" fill="white"/>
<path d="M429.779 609.863C450.858 602.351 470.845 592.526 489.415 580.669L460.906 540.832C445.392 556.183 428.189 569.826 409.605 581.464L429.779 609.863Z" fill="#E0E0E3"/>
<path d="M70.3328 472.917C62.2138 458.162 55.3179 442.622 49.8372 426.728L47.3911 417.378L394.494 175.379L445.947 214.034L75.3617 482.029L70.3328 472.917Z" fill="#FFCE00"/>
<path d="M477.104 323.29C458.905 304.251 368.124 206.4 368.124 149.61C368.124 85.3103 420.347 33 484.537 33C548.727 33 600.951 85.3103 600.951 149.61C600.951 206.362 510.168 304.243 491.97 323.29C487.919 327.529 481.155 327.53 477.104 323.29Z" fill="#CD2900"/>
<path d="M484.537 188.909C455.81 188.909 432.441 165.499 432.441 136.725C432.441 107.951 455.812 84.541 484.537 84.541C513.264 84.541 536.633 107.951 536.633 136.725C536.633 165.499 513.264 188.909 484.537 188.909Z" fill="#891D00"/>
<path d="M201.545 249.469C235.234 249.469 262.646 222.012 262.646 188.265C262.646 182.928 258.327 178.601 252.998 178.601H214.408C209.08 178.601 204.76 182.927 204.76 188.265C204.76 193.601 209.079 197.929 214.408 197.929H242.225C237.86 216.376 221.276 230.142 201.543 230.142C178.493 230.142 159.738 211.355 159.738 188.266C159.738 165.176 178.493 146.39 201.543 146.39C211.736 146.39 221.551 150.105 229.184 156.849C233.182 160.38 239.278 159.996 242.801 155.995C246.325 151.992 245.943 145.885 241.948 142.355C230.788 132.494 216.439 127.063 201.543 127.063C167.854 127.063 140.442 154.519 140.442 188.267C140.442 222.015 167.854 249.469 201.545 249.469Z" fill="white"/>
</g>
<defs>
<clipPath id="clip0_3044_4075">
<rect width="593" height="594" fill="white" transform="translate(34 33)"/>
</clipPath>
</defs>
</svg>
