<svg width="660" height="684" viewBox="0 0 660 684" fill="none" xmlns="http://www.w3.org/2000/svg">
<path d="M158.11 638.54L78.3199 468.27C78.3199 468.27 19.0899 379.17 68.4499 239.05C68.4499 239.05 34.9299 195.17 48.8099 177.89C50.6294 174.857 53.2073 172.35 56.2898 170.616C59.3723 168.882 62.8532 167.98 66.3899 168C78.7299 168 109.78 165.43 109.78 165.43C109.78 165.43 162.84 97.9 235 73.84C307.16 49.78 423.17 46.08 499.67 45.46H499.87L579.66 215.73C579.66 215.73 638.89 304.83 589.53 444.95C589.53 444.95 623.05 488.83 609.17 506.11C607.352 509.14 604.777 511.645 601.699 513.379C598.62 515.113 595.143 516.016 591.61 516C579.27 516 548.22 518.57 548.22 518.57C548.22 518.57 495.16 586.1 423 610.16C350.84 634.22 234.83 637.92 158.33 638.54H158.11Z" fill="white"/>
<path d="M483.44 69.73C483.44 69.73 344.71 82.28 305.76 84.53C305.76 84.53 190.58 92.2 123.15 188.18L122.38 189.64L69.8901 191.26L167 248.33C167 248.33 256.46 101.39 420.15 184.48L483.44 69.73Z" fill="#FF5150"/>
<path d="M483.44 69.73L420.1 184.48C420.1 184.48 567.34 267.14 489.2 433.92L586.88 490.48L562.61 443.38C562.61 443.38 599.8 373.07 576 278.45C572.885 266.217 568.644 254.3 563.33 242.85L483.44 69.73Z" fill="#F24A4A"/>
<path d="M171.89 612.42L214.46 534.9C170 465 147.83 391.77 147.83 391.77C128.08 306.63 167 248.33 167 248.33L69.94 191.26L93.59 237.53C93.59 237.53 54.1 324.31 76.31 401.84C76.31 401.84 87.02 445.77 106.78 482.38C116.02 499.5 125.17 516.67 133.71 534.16L171.89 612.42Z" fill="#004F63"/>
<path d="M586.88 490.48L489.2 433.92C489.2 433.92 450.74 505.28 374.2 521.92C374.2 521.92 277.96 542.28 214.42 534.92L171.85 612.44C171.85 612.44 358.78 606.44 393.33 594.76C393.33 594.76 480.93 567.61 535.84 495.43L586.88 490.48Z" fill="#004253"/>
<path d="M293.42 213.47L276.66 244.63C276.66 244.63 195.54 254.39 218.57 344.88L200.88 375.31L230.08 393.41C230.08 393.41 247 479 332.09 452.23L362.09 468.68L379.36 439.89C379.36 439.89 462.03 425.49 439.36 338.3L456 307.55L425.15 288.74C425.15 288.74 411.88 205 325.5 231L293.42 213.47Z" fill="#00BA94"/>
</svg>
